<svg width="70" height="70" fill="none" xmlns="http://www.w3.org/2000/svg"><circle cx="35" cy="35" r="35" fill="#F1522F"/><path d="M50.66 22.555H24.523c-1.285 0-2.287 1.046-2.287 2.248v.495h-.504c-1.285 0-2.288 1.045-2.288 2.248v17.449c0 1.262 1.064 2.247 2.288 2.247h.332l-.56 3.293c-.11.55.505.99 1.009.713l7.649-4.06h17.646c1.285 0 2.287-1.04 2.287-2.248v-.495h.504c1.285 0 2.288-1.04 2.288-2.248v-17.34c.055-1.262-1.003-2.302-2.232-2.302h.005zm.892 19.702a.873.873 0 01-.892.876h-.504V27.606c0-1.263-1.063-2.248-2.287-2.248H23.632v-.495c0-.495.393-.876.891-.876h26.132c.504 0 .891.386.891.876v17.394h.006z" fill="#fff"/></svg>