<svg width="90" height="90" fill="none" xmlns="http://www.w3.org/2000/svg"><rect width="90" height="90" rx="45" fill="#D6DEEC"/><path d="M44.427 41.23a.806.806 0 01-.727-.856c.025-.371.012-.743-.012-1.264-.008-.15-.012-.307-.02-.48a5.785 5.785 0 01-.484-.146 6.153 6.153 0 00-.429-.129.804.804 0 01-.605-.78v-3.94c0-.174.056-.344.161-.481.016-.02.032-.121-.016-.287-.133-.452-.65-1.074-1.466-1.369-1.066-.388-2.092-.246-2.1-.246a.804.804 0 01-.238-1.591c.056-.008 1.425-.21 2.887.323 1.184.428 2.149 1.38 2.456 2.423.157.529.129 1.03-.077 1.45v3.125c.25.08.432.133.658.125a.812.812 0 01.582.218c.157.15.25.352.254.57.008.456.024.828.036 1.147l.025.618c.452-.02.811-.15 1.34-.53a.802.802 0 01.933 1.305c-.933.666-1.663.832-2.407.832-.25 0-.5-.02-.759-.045l.008.008zm21.557 24.214v2.1c0 1.357-.95 2.516-2.278 2.964v3.498c0 .383-.27.71-.646.787l-16.367 3.275c-.315.19-1.139.626-2.048.626h-.097c-1.542-.052-2.48-.626-2.588-.698l-15.108-3.021a.804.804 0 01-.646-.788v-4.099c-1.62-.278-2.85-1.566-2.85-3.113v-2.1c0-1.543 1.227-2.83 2.85-3.114v-6.946a.805.805 0 01.961-.787l.61.121 2.552-2.221a.81.81 0 01.691-.182l.4.081c1.942-3.3 5.12-5.468 9.033-5.969V44.74a8.846 8.846 0 01-1.793-1.232c-.363.105-.738.21-1.126.21-.267 0-.509-.052-.727-.15-.654-.298-.945-.948-1.208-1.518-.109-.238-.29-.642-.403-.714-.117-.077-.562-.077-.747-.077h-.158c-.533 0-1.26 0-1.797-.465-.541-.468-.638-1.17-.727-1.793-.036-.262-.1-.698-.19-.803-.093-.105-.513-.227-.767-.303-.602-.174-1.284-.372-1.672-.978-.384-.597-.283-1.3-.194-1.918.04-.278.101-.702.04-.832-.056-.125-.427-.359-.646-.5-.529-.34-1.13-.723-1.332-1.414-.198-.678.097-1.32.355-1.89.117-.258.3-.646.279-.791-.02-.133-.303-.46-.477-.654-.395-.453-.884-1.018-.884-1.74 0-.724.489-1.29.884-1.742.17-.193.457-.524.477-.654.02-.145-.158-.537-.279-.795-.258-.566-.557-1.208-.355-1.89.202-.69.803-1.074 1.332-1.414.223-.14.59-.375.647-.5.06-.13 0-.554-.04-.832-.09-.618-.19-1.32.193-1.918.388-.602 1.07-.8 1.672-.974.254-.072.674-.198.767-.303.093-.105.154-.545.19-.803.089-.622.186-1.325.727-1.793.537-.465 1.264-.465 1.793-.465h.162c.19 0 .63 0 .747-.076.117-.073.299-.477.404-.715.258-.574.553-1.22 1.207-1.519.218-.1.46-.149.727-.149.416 0 .812.117 1.2.23.278.081.565.166.75.166.045 0 .065-.004.069-.008.13-.037.416-.368.586-.566.411-.476.88-1.017 1.595-1.118.67-.097 1.296.286 1.813.622.238.153.602.387.751.387.15 0 .509-.234.751-.387.517-.336 1.143-.715 1.813-.622.715.1 1.184.642 1.596 1.118.17.198.456.53.585.566.004 0 .024.008.069.008.185 0 .472-.085.75-.166.384-.113.784-.23 1.2-.23.267 0 .51.053.727.15.654.298.945.949 1.208 1.518.109.238.29.642.404.715.117.076.56.076.747.076h.157c.53 0 1.256 0 1.797.465.541.468.638 1.17.727 1.793.036.262.097.698.19.803.089.105.513.227.767.303.602.174 1.284.372 1.672.978.388.597.283 1.3.194 1.918-.04.278-.101.703-.04.832.056.125.423.36.646.5.529.34 1.13.723 1.336 1.414.198.678-.097 1.32-.355 1.89-.117.258-.299.646-.279.791.02.13.303.457.477.654.396.453.884 1.018.884 1.741 0 .723-.488 1.288-.884 1.74-.17.194-.457.526-.477.655-.02.145.158.533.279.791.262.566.557 1.208.355 1.89-.202.69-.803 1.074-1.332 1.414-.223.141-.59.38-.647.5-.06.13 0 .554.04.832.09.618.19 1.32-.193 1.918-.388.602-1.07.8-1.672.978-.254.072-.674.198-.767.303-.093.105-.154.545-.19.807-.089.618-.186 1.325-.727 1.793-.537.465-1.26.465-1.789.465h-.173c-.186 0-.622 0-.74.077-.117.076-.298.476-.407.714-.259.574-.554 1.22-1.208 1.519-.218.1-.46.15-.727.15-.181 0-.36-.025-.537-.062a9.284 9.284 0 01-1.05.764v1.377c4.317.331 7.66 2.685 9.7 5.799l.78-.158a.795.795 0 01.747.239l2.043 2.172h.016a.805.805 0 01.961.788v7.842c1.33.453 2.278 1.607 2.278 2.964l-.016-.004zm-6.163-12.34l-14.348 2.935v1.288a.709.709 0 01.178-.06l15.22-3.045-1.05-1.119zm-15.18 23.983c.32 0 .67-.121.933-.242V59.112c-.698.121-1.728.125-2.383.06v17.64c.303.117.788.25 1.41.27h.04v.005zm-.513-33.046h1.079c3.973 0 7.204-3.687 7.204-8.214v-4.753c0-.638-.065-1.26-.186-1.854a.643.643 0 01-.048-.052 74.138 74.138 0 01-.27-.392c-.623-.912-.938-1.373-2.088-1.405-1.075-.032-1.72-.505-2.238-.884-.4-.295-.715-.525-1.22-.594-.339-.045-.549.016-.896.125-.432.133-.973.295-1.83.262a5.685 5.685 0 01-1.32-.218c-.472-.12-.71-.181-1.183-.016-.154.053-.34.239-.541.432-.444.437-1.046 1.046-2.088.99-.533-.024-.795.076-.929.194a9.126 9.126 0 00-.658 3.416v4.753c0 4.531 3.23 8.214 7.204 8.214l.008-.004zm-8.068-4.054c.048.028.089.064.133.097a10.724 10.724 0 01-.872-4.26V31.07c0-1.224.206-2.39.573-3.469a.746.746 0 01.033-.186c.193-.617.734-1.647 2.653-1.558.307.008.5-.146.896-.534.3-.294.642-.625 1.131-.8.933-.33 1.563-.165 2.12-.023.307.076.594.153.981.17.598.027.933-.082 1.297-.195.42-.129.888-.274 1.583-.177.912.125 1.49.549 1.954.888.44.323.76.557 1.333.574 1.97.06 2.681 1.102 3.368 2.108.08.12.165.242.254.367.04.06.073.125.097.19.093.178.178.392.255.674.117.638.177 1.297.177 1.971v4.753c0 1.381-.258 2.694-.718 3.885.266-.044.545-.052.827-.052h.174c.174 0 .63 0 .74-.077.084-.093.148-.537.185-.8.077-.549.165-1.167.57-1.631.4-.465 1-.638 1.53-.792.242-.069.69-.202.771-.303.057-.113-.008-.553-.044-.815-.081-.55-.17-1.172.084-1.729.255-.553.78-.888 1.244-1.187.214-.137.61-.392.659-.513.02-.125-.166-.525-.275-.763-.234-.505-.497-1.078-.408-1.692.085-.602.493-1.07.852-1.482.17-.194.48-.554.489-.687-.008-.133-.323-.492-.489-.686-.36-.412-.767-.88-.852-1.482-.089-.614.178-1.188.408-1.692.109-.239.295-.643.275-.772-.049-.117-.445-.371-.659-.509-.464-.294-.99-.63-1.244-1.187-.254-.561-.165-1.183-.084-1.728.04-.263.1-.703.044-.824-.08-.101-.529-.23-.767-.299-.53-.154-1.13-.327-1.53-.791-.404-.465-.49-1.087-.57-1.632-.036-.246-.101-.71-.19-.804-.1-.072-.565-.072-.739-.072h-.157c-.465 0-1.103 0-1.62-.332-.513-.33-.771-.9-.997-1.4-.105-.231-.3-.655-.412-.724 0 0-.02-.004-.057-.004-.181 0-.468.085-.743.166-.557.165-1.2.315-1.728.161-.582-.17-.99-.642-1.349-1.058-.166-.194-.477-.553-.606-.581-.129 0-.492.238-.715.38-.468.302-1.001.646-1.623.646-.622 0-1.155-.344-1.623-.646-.218-.142-.586-.38-.72-.38-.124.028-.431.387-.6.577-.36.416-.768.885-1.35 1.058-.529.154-1.167.004-1.728-.161-.275-.08-.561-.166-.743-.166a.277.277 0 00-.06.004c-.11.065-.304.493-.409.72-.226.5-.484 1.07-.997 1.4-.513.332-1.151.332-1.615.332h-.162c-.174 0-.638 0-.743.072-.089.093-.153.553-.186.804-.077.55-.165 1.167-.57 1.631-.399.465-1 .639-1.534.792-.242.069-.69.202-.771.303-.057.113.008.553.044.816.081.549.17 1.17-.088 1.728-.255.553-.78.888-1.244 1.187-.214.137-.61.392-.659.513-.02.125.166.525.275.763.234.505.497 1.079.408 1.692-.085.598-.493 1.07-.852 1.483-.17.193-.48.553-.489.686.008.133.323.493.489.686.36.412.767.885.852 1.483.089.613-.178 1.187-.408 1.692-.109.238-.295.638-.274.767.044.117.444.371.658.509.464.294.99.634 1.244 1.187.254.561.165 1.183.084 1.728-.036.263-.1.703-.044.82.08.101.529.23.771.299.53.153 1.131.327 1.53.792.405.464.49 1.086.57 1.631.037.246.101.71.19.804.1.072.565.072.743.072h.158c.464 0 1.102 0 1.619.331l-.008.017zm5.993 5.379v2.04c-.255.096-1.284.322-1.466.411.529.828 1.821 2.334 4.595 3.311 2.654-.682 3.748-2.447 4.124-3.263-.146-.105-1.163-.33-1.454-.46v-2.213a7.93 7.93 0 01-2.645.452h-1.079a7.857 7.857 0 01-2.075-.278zm-8.933 6.812l11.55 2.383 12.78-2.617c-1.497-2.04-3.666-3.634-6.372-4.276l-.056.202c-.044.157-1.107 3.832-5.702 4.878l-.218.048-.214-.072c-4.483-1.495-5.864-4.317-6.094-4.867-2.355.735-4.305 2.246-5.678 4.321h.004zm-3.356 2.363l14.102 2.819v-1.33L31.08 53.394l-1.317 1.143v.004zm-2.9 13.993h.283c.646 0 1.216-.267 1.559-.675h-.848a.803.803 0 110-1.607h1.139s.032 0 .052.004v-.682s-.032.004-.052.004h-1.139a.803.803 0 110-1.608h.848c-.343-.407-.913-.674-1.559-.674h-.282c-1.05 0-1.902.703-1.902 1.567v2.1c0 .864.852 1.567 1.901 1.567v.004zm.945 4.987l13.775 2.754V58.543L27.81 55.789v5.968c1.62.279 2.848 1.567 2.848 3.114v2.1c0 1.542-1.228 2.83-2.848 3.113v3.441-.004zm34.286-.178v-2.637c-1.123-.024-2.112-.529-2.734-1.292-.27.178-.57.311-.888.38l-6.946 1.417a2.298 2.298 0 01-.465.049c-1.191 0-2.096-.941-2.1-2.193l-.016-5.19c0-1.312.977-2.544 2.233-2.802l6.946-1.422c.158-.032.311-.048.465-.048 1.195 0 2.096.94 2.1 2.193v.771c.428-.182.9-.29 1.401-.299v-6.663l-14.918 2.984v17.733l14.918-2.985.004.004zm-3.416-5.803v-2.1c0-.54.149-1.05.415-1.494l-.008-2.136c0-.287-.133-.59-.496-.59a.618.618 0 00-.146.016l-6.946 1.418c-.508.105-.953.674-.949 1.223l.017 5.19c0 .323.201.666.638.573l6.946-1.421c.202-.04.391-.158.549-.315a2.651 2.651 0 01-.024-.364h.004zm5.698-2.1c0-.864-.852-1.567-1.902-1.567h-.283c-.646 0-1.216.267-1.559.675h.848a.803.803 0 110 1.607h-1.139s-.032-.004-.052-.004v.683s.032-.005.052-.005h1.14a.803.803 0 110 1.608h-.849c.343.408.913.674 1.559.674h.283c1.05 0 1.902-.703 1.902-1.567V65.44zm-7.54-2.58l-4.18.949a.804.804 0 00.356 1.567l4.18-.95a.804.804 0 00-.356-1.566zm0 2.564l-4.18.95a.804.804 0 00.356 1.566l4.18-.949a.804.804 0 00-.356-1.567zm-8.5-32.714c-.4.173-.917.1-1.087.056a.803.803 0 00-.42 1.55c.065.017.424.114.905.114.371 0 .811-.057 1.243-.246a.803.803 0 10-.642-1.474zm-7.694 0c-.395.173-.916.096-1.082.056a.803.803 0 00-.424 1.55c.065.017.424.114.905.114.371 0 .811-.057 1.243-.246a.803.803 0 10-.642-1.474zm5.682-1.228s1.805-.715 3.598 0a.807.807 0 001.046-.448.805.805 0 00-.448-1.046c-2.41-.965-4.713-.037-4.806 0a.806.806 0 00-.436 1.046.806.806 0 001.046.44v.008z" fill="#024"/></svg>