<svg width="90" height="90" fill="none" xmlns="http://www.w3.org/2000/svg"><rect width="90" height="90" rx="45" fill="#D6DEEC"/><path d="M67.573 72.934a.765.765 0 01-.764.765h-1.503a.765.765 0 010-1.529h1.503c.422 0 .764.343.764.764zm7.352-27.364v1.642a2.834 2.834 0 01-2.832 2.832h-.554c-.46 0-.892-.113-1.277-.309v5.826h.083v4.053c0 1.69-1.115 3.544-3.242 3.819l-.098.007H51.187v4.128h3.156c1.747 0 3.062 1.472 3.062 3.43v1.093h5.653a.848.848 0 010 1.695H28.01a.849.849 0 010-1.695h5.088v-1.092c0-1.89 1.435-3.431 3.194-3.431h3.024V63.44H24.688a3.784 3.784 0 01-.233.008c-2.531 0-3.431-1.853-3.431-3.59v-9.57c-.392.204-.832.32-1.303.32h-.554a2.836 2.836 0 01-2.832-2.831v-1.138A4.406 4.406 0 0114 42.753a4.41 4.41 0 012.335-3.887v-1.25a2.84 2.84 0 011.74-2.614c-.339-2.135-.629-6.346 1.318-10.357 1.68-3.48 6.143-7.125 13.705-7.269v-.244c0-1.175.957-2.132 2.132-2.132h20.604c1.175 0 2.132.957 2.132 2.132v.237c7.675.068 12.21 3.762 13.912 7.276 1.913 3.947 1.725 7.834 1.427 9.852a2.833 2.833 0 011.616 2.554v.93a4.407 4.407 0 012.177 3.796c0 1.62-.878 3.028-2.177 3.797l.004-.004zm-58.594-.818V40.75a2.873 2.873 0 000 4v.003zm18.462-25.1c0 .24.196.436.437.436h20.604a.437.437 0 00.437-.437v-2.52a.437.437 0 00-.437-.436H35.23a.437.437 0 00-.437.437v2.52zM20.85 37.615c0-.626-.509-1.138-1.134-1.138h-.554c-.625 0-1.133.509-1.133 1.138v10.16c0 .63.508 1.138 1.133 1.138h.554c.625 0 1.134-.508 1.134-1.137v-10.16zm28.637 31.647V63.44H41.01v4.128h2.26a.848.848 0 01-.001 1.694h-6.978c-.927 0-1.5.9-1.5 1.733v1.092h20.914v-1.092c0-.84-.478-1.733-1.367-1.733h-4.85zM68.816 57.09h-46.27v2.768c0 2.06 1.434 2.06 1.905 2.06.064 0 .128 0 .196-.003h42.301c1.473-.219 1.868-1.597 1.868-2.301v-2.527.003zm-.083-1.525v-7.973a3.103 3.103 0 01-.026-.376V37.054c0-.128.011-.252.026-.376v-7.574c0-.73-.583-1.322-1.303-1.322H24.455c-.787 0-1.906.686-1.906 1.322V55.57h25.14c.35-3.778 2.779-6.463 6.206-6.93v-.324c-1.292-.885-2.204-2.387-2.4-4.135-.493-.55-1.683-2.034-1.841-3.66-.21-2.17.339-4.046 1.59-5.42.082-.09.169-.17.255-.252 1.153-1.375 2.791-2.241 4.554-2.324 3.89-.17 7.216 2.275 7.679 5.581.4 2.832-.772 5.096-1.33 5.985-.192 2.022-1.348 3.724-2.949 4.55 3.733.534 6.072 3.765 6.309 6.933h2.971v-.008zM52.998 43.916c.189 2.087 1.721 3.721 3.582 3.721h.723c1.985 0 3.604-1.864 3.604-4.154v-.03c-.17-.614-.843-1.209-1.092-1.273-3.1-.045-5.073-.663-6.658-1.849a38.95 38.95 0 00-.147 3.525c0 .019-.008.038-.008.057l-.004.003zm6.877-3.253c.656.007 1.322.56 1.729 1.077.056.071.11.143.158.214.362-.938.663-2.21.46-3.642-.358-2.53-2.99-4.425-6.098-4.267-1.743.08-3.337 1.19-4.165 2.863 1.924 2.542 3.63 3.694 7.92 3.758l-.004-.003zm-2.572 8.5h-.723c-.4 0-.787-.057-1.164-.155v1.055l1.258 1.423c.44-.546.915-1.167 1.183-1.536v-.821a4.46 4.46 0 01-.554.034zm-3.728 1.114l-.023-.026c-2.365.569-4.026 2.569-4.335 5.314h15.016c-.222-2.407-1.962-4.82-4.715-5.363l-.065.094a32.791 32.791 0 01-2.188 2.866l-.576.674-.58-.67a427.682 427.682 0 00-2.534-2.889zM51.25 38.471a6.525 6.525 0 00-.08 1.894c.035.335.14.674.283 1.002v-2.38c0-.09.012-.174.015-.264-.071-.083-.143-.166-.214-.252h-.004zm19.008-9.37v5.426a2.803 2.803 0 011.276-.308h.264c.275-1.868.433-5.34-1.296-8.907-1.499-3.092-5.543-6.327-12.537-6.41v.75a2.134 2.134 0 01-2.132 2.13H35.23a2.134 2.134 0 01-2.132-2.13v-.747c-6.843.14-10.85 3.345-12.338 6.407-1.755 3.623-1.476 7.536-1.171 9.471h.128c.47 0 .915.117 1.303.32V29.1c0-1.604 1.846-2.847 3.435-2.847H67.43a2.841 2.841 0 012.829 2.847zm2.967 7.95a1.14 1.14 0 00-1.137-1.138h-.554a1.14 1.14 0 00-1.137 1.138v10.16c0 .63.508 1.138 1.137 1.138h.554c.625 0 1.137-.508 1.137-1.137V37.05zm2.347 4.726c0-.689-.249-1.314-.652-1.811v3.623a2.864 2.864 0 00.652-1.812zM26.368 58.661a.943.943 0 00-.945.945c0 .524.422.945.945.945a.943.943 0 00.945-.945.943.943 0 00-.945-.945zm3.36 0a.946.946 0 100 1.892.946.946 0 000-1.892zm3.359 0a.943.943 0 00-.946.945c0 .524.422.945.946.945a.943.943 0 00.945-.945.943.943 0 00-.945-.945zm15.23-13.31a.76.76 0 01.06.897.766.766 0 01-.836.331l-4.873-1.246c-1.6 1.352-4.004 1.867-5.224 1.867h-3.02c-4.358 0-7.902-3.713-7.902-8.278V37.7c0-4.569 3.469-8.147 7.902-8.147h3.02c4.47 0 8.109 3.654 8.109 8.147v1.224c0 .312-.08 2.12-.147 2.96l2.907 3.468h.004zm-2.693-.836l-1.589-1.898a.754.754 0 01-.17-.606c.046-.298.166-2.716.166-3.089V37.7c0-3.65-2.953-6.621-6.583-6.621h-3.02c-3.574 0-6.373 2.907-6.373 6.62v1.224c0 3.722 2.859 6.75 6.373 6.75h3.02c1.111 0 3.3-.547 4.474-1.722a.762.762 0 01.727-.2l2.975.761v.004zm-13.253-6.922a.898.898 0 00-.896.896c0 .494.403.897.896.897a.899.899 0 00.897-.897.898.898 0 00-.897-.896zm3.33 0a.895.895 0 10.05 1.79.895.895 0 00-.05-1.79zm3.287 0a.896.896 0 100 1.793.896.896 0 000-1.793zm4.847 11.321h-15.26a.849.849 0 00-.847.847c0 .467.38.848.847.848h15.26a.849.849 0 000-1.695zm-5.088 2.825H28.575a.849.849 0 00-.847.847c0 .467.38.848.847.848h10.172a.849.849 0 000-1.695zm8.478 15.825h-1.13a.849.849 0 000 1.695h1.13a.849.849 0 000-1.695z" fill="#024"/></svg>