<svg width="90" height="90" fill="none" xmlns="http://www.w3.org/2000/svg"><rect width="90" height="90" rx="45" fill="#D6DEEC"/><path d="M56.923 68.283a.939.939 0 00-.673-.457.922.922 0 00-.775.242l-3.353 3.162h-.56a.933.933 0 00-.93.93c0 .513.418.932.93.932h6.52a.931.931 0 00.806-1.397l-1.965-3.416v.004zm-1.635 2.95h-.45l1.056-.997.575.998h-1.185.004z" fill="#024"/><path d="M62.108 52.487c-1.147-.555-2.191-1.2-3.299-1.886-.422-.258-.849-.52-1.28-.778 1.44-2.618 1.867-6.734 1.934-11.175 1.072-.626 1.913-2.093 2.023-3.365.125-1.432-.333-2.261-.74-2.703a2.416 2.416 0 00-1.37-.748c-.003-.203-.011-.407-.015-.606l-.027-.979c0-.156.007-3.877-.106-5.102-.52-5.474-3.839-9.238-8.295-9.468-1.557-1.182-3.639-2.332-7.23-2.262-2.626.059-5.686.399-8.48 2.496a9.688 9.688 0 00-3.161 3.952c-.697 1.565-1.103 3.447-1.21 5.603-.077 1.589-.136 5.364-.077 6.483v.474a2.447 2.447 0 00-1.558.779c-.407.442-.864 1.271-.74 2.703.118 1.37 1.093 2.974 2.282 3.498.102 4.042.555 8.107 2.226 10.862-.383.207-.786.423-1.228.665-1.225.665-2.614 1.42-2.841 1.51-2.21.736-5.916 3.201-5.916 11.426v11.397c0 .513.419.932.931.932h42.845a.933.933 0 00.93-.932V63.036c0-1.784-.402-7.818-5.594-10.549h-.004zm-30.926-14.77c-.427-.36-.97-1.17-1.037-1.956-.055-.646.05-1.15.305-1.425.152-.168.36-.25.622-.27.196.212.196 1.291.196 1.87 0 .87-.004 1.386-.083 1.78h-.003zm21.41 22.467l1.037 4.249-7.27 9.038 3.388-9.269a.96.96 0 00.043-.47l4.171-10.435c.22-.137.435-.281.65-.434l1.534 4.003-3.24 2.453a.845.845 0 00-.31.869l-.003-.004zm-15.213-1.06l-3.365-2.294 1.495-3.9c.117.086.235.168.356.246l4.633 10.96a.927.927 0 00.047.461l3.482 9.168-7.606-9.747 1.28-3.944a.837.837 0 00-.326-.95h.004zm8.514.927h.568l1.416 3.83-.434 1.198-2.297 5.743-2.492-5.896-.243-.642 1.467-4.069 2.015-.164zM41.3 57.069l.923 2.238-.892 2.481-1.518-3.596 1.49-1.127-.003.004zm7.63 4.289l-.947-2.56.583-1.881 1.62 1.29-1.26 3.15h.004zm1.909-4.778l-1.569-1.248c.763-.215 1.58-.493 2.406-.85l-.837 2.098zm-4.245-.677l.399.43-.575 1.855h-2.845l-.833-2.023.395-.32c.986.172 1.655.223 1.741.23h.11c.285-.015.857-.058 1.608-.172zm-7.458.697l-.92-2.172c.885.38 1.777.673 2.602.9L39.133 56.6h.004zm19.755-23.136c.259 0 .466.086.623.25.25.274.36.783.305 1.424-.07.783-.615 1.597-1.037 1.957-.078-.392-.082-.912-.082-1.78 0-.58 0-1.663.195-1.855l-.004.004zm-26.363-7.912c.097-1.948.457-3.63 1.068-5.004.778-1.75 1.815-2.676 2.633-3.29 2.406-1.808 5.032-2.106 7.508-2.16h.31c2.547 0 4.14.711 5.395 1.58.012.016.02.035.035.051.466.532.728 1.04.779 1.506.047.43.41.748.834.748.03 0 .062 0 .093-.004a.84.84 0 00.74-.927 3.197 3.197 0 00-.114-.564c3.135.642 5.337 3.576 5.744 7.826.067.7.09 2.386.098 3.6-.063-.013-.133-.02-.203-.032-.65-.102-1.996-.317-2.462-.59-3.49-2.051-4.46-4.074-5.54-6.923a.849.849 0 00-.677-.535.833.833 0 00-.79.344c-2.637 3.709-5.33 5.998-10.674 6.405a.838.838 0 00-.297-.031c-1.24.093-2.818-.098-2.833-.102a.84.84 0 00-.935.728.84.84 0 00.727.935c.012 0 .06.008.137.015a27.199 27.199 0 00-1.389 2.36h-.278a123.79 123.79 0 01.09-5.936zm24.54 11.382a21.97 21.97 0 01-.125 1.272c-.286 2.081-2.144 4.856-4.465 5.865-.997-1.334-2.167-2.817-6.89-3.048v-.031l-.02-.951-.95.04c-.192.015-.298-.024-.505-.103v-5.536c0-.383-.074-.751-.211-1.088h2.285a2.96 2.96 0 00-.212 1.088v2.168a2.952 2.952 0 002.95 2.95h4.03a2.952 2.952 0 002.951-2.95v-2.168a2.88 2.88 0 00-.211-1.088h1.451v.075c-.129.622-.129 1.314-.129 1.893 0 .634 0 1.15.047 1.616l.004-.004zm-9.23-.324v-2.168c0-.599.49-1.088 1.088-1.088h4.03c.598 0 1.088.49 1.088 1.088v2.168a1.09 1.09 0 01-1.088 1.087h-4.03a1.09 1.09 0 01-1.088-1.087zm5.122-5.122H41.32c-.028 0-.051 0-.075.004-.027 0-.055-.004-.082-.004h-6.53c.504-.892.99-1.616 1.279-2.046.031-.044.055-.083.082-.122 6.268-.105 9.594-2.34 12.454-5.967 1.022 2.375 2.387 4.426 5.697 6.37.673.395 1.855.61 3.013.794v.967h-4.194l-.004.004zM37.129 39.56h4.03c.383 0 .751-.075 1.088-.212v1.785c-2.32.32-3.937 1.216-5.126 2.825-1.025-.689-3.157-2.958-3.983-5.04l.047-4.206c.145-.462.317-.92.508-1.362h.69a2.96 2.96 0 00-.212 1.088v2.168a2.952 2.952 0 002.95 2.95l.008.004zm4.03-1.863h-4.03a1.09 1.09 0 01-1.088-1.087v-2.168c0-.599.49-1.088 1.088-1.088h4.03c.599 0 1.088.49 1.088 1.088v2.168a1.09 1.09 0 01-1.088 1.087zm-3.78 8.13c.31.02.607-.132.771-.394 1.021-1.66 2.48-2.763 6.288-2.763.156 0 .317 0 .481.008 4.508.106 5.318 1.194 6.257 2.454.113.156.23.309.352.461a.84.84 0 00.904.282c2.116-.646 4.131-2.528 5.27-4.715-.211 3.913-.837 7.313-2.395 8.921-3.588 3.705-9.132 4.25-10.357 4.324-.634-.059-6.953-.709-9.907-4.132-1.694-1.964-2.32-5.36-2.535-8.992 1.44 2.317 3.662 4.473 4.871 4.55v-.003zm-12.516 18.04c0-7.059 2.907-9.082 4.64-9.657.286-.094 1.045-.5 3.142-1.64.43-.234.947-.516 1.494-.81l.016.016-1.944 5.075a.842.842 0 00.309.994l3.392 2.312-1.225 3.768a.835.835 0 00.137.775l7.52 9.637H30.825a.921.921 0 00.243-.622V63.78a.933.933 0 00-.931-.932.933.933 0 00-.931.931v9.935c0 .239.093.458.242.622h-4.59V63.87l.005-.004zm40.981 10.466h-4.347V63.776a.933.933 0 00-.93-.932.934.934 0 00-.932.932v10.556h-11.82l7.379-9.171a.831.831 0 00.16-.724L54.35 60.32l3.302-2.505a.838.838 0 00.278-.966l-1.953-5.094c.15-.137.294-.278.439-.423.47.278.939.564 1.412.853 1.1.677 2.234 1.377 3.44 1.964 4.24 2.235 4.573 7.368 4.573 8.886v11.296h.004z" fill="#024"/><path d="M39.762 34.594H37.9a.933.933 0 00-.931.932c0 .512.418.93.93.93h1.863a.933.933 0 00.931-.93.933.933 0 00-.93-.932zm3.654-11.002c.13 0 .263-.031.388-.094 1.17-.61 2.672-1.78 3.384-3.248a.84.84 0 00-1.51-.732c-.43.889-1.495 1.89-2.649 2.49a.837.837 0 00.387 1.58v.004zm-2.879 23.637c.105 0 2.226-.024 3.905-1.33.61.473 2.124 1.408 4.554 1.408a.838.838 0 000-1.675c-1.882 0-3.013-.669-3.459-.997a.844.844 0 00-.313-.885.842.842 0 00-1.174.176c-1.166 1.581-3.462 1.624-3.517 1.628a.838.838 0 000 1.675h.004zm4.503 1.956a.933.933 0 00-.93.931v1.863c0 .512.418.931.93.931a.934.934 0 00.932-.931v-1.863a.933.933 0 00-.932-.93zm3.725.622a.933.933 0 00-.931.931v.623c0 .512.419.93.931.93a.933.933 0 00.931-.93v-.623a.933.933 0 00-.93-.93zm-6.831 0a.934.934 0 00-.932.931v.623c0 .512.42.93.932.93a.933.933 0 00.93-.93v-.623a.934.934 0 00-.93-.93zm7.763-13.35h1.862a.933.933 0 00.931-.931.933.933 0 00-.93-.932h-1.863a.933.933 0 00-.932.932c0 .512.419.93.932.93z" fill="#024"/></svg>