<svg width="90" height="90" fill="none" xmlns="http://www.w3.org/2000/svg"><rect width="90" height="90" rx="45" fill="#D6DEEC"/><path d="M74.895 64.12h-2.01c.939-.875 1.533-2.052 1.533-3.304v-1.473a.723.723 0 00-.722-.722h-3.913V31.186c0-1.49-1.213-2.7-2.7-2.7h-5.02v-3.668a.8.8 0 00-.8-.8H48.01a4.229 4.229 0 00-.398-.018c-1.402 0-2.547.516-3.259 1.427-1.373-1.33-3.116-1.41-3.51-1.41h-13.27a.8.8 0 00-.8.805v3.667h-5.109c-1.49 0-2.7 1.213-2.7 2.7v27.435h-3.682a.723.723 0 00-.722.722v1.473c0 1.28.53 2.44 1.39 3.305H11.8a.8.8 0 100 1.6h63.094a.8.8 0 100-1.6v-.004zm-7.813-34.19c.694 0 1.256.566 1.256 1.256v27.435h-2.266V34.306a.723.723 0 00-.722-.722h-3.29v-3.657h5.019l.004.003zM50.16 60.07c-.263.53-.711.843-1.266.843h-8.809c-.608 0-1.063-.303-1.309-.843H50.16zM28.378 25.622h12.465c.33 0 2.024.082 2.953 1.686.025.043.057.075.089.11V48.08a.8.8 0 101.6 0V26.69a.564.564 0 00-.007-.079c.48-.818 1.391-1.01 2.128-1.01.146 0 .245.01.26.01a.926.926 0 00.099.008h12.494v26.2H46.684a.808.808 0 00-.754.523c-.128.349-.377.75-1.174.75-.363 0-1.01-.096-1.248-.75a.8.8 0 00-.755-.523H28.374V25.622h.004zm13.88 27.805c.73 1.174 2.068 1.277 2.502 1.277 1.088 0 1.931-.448 2.426-1.277h14.073a.8.8 0 00.8-.8V35.028h2.569v23.593h-40.28V35.028h2.425v17.595c0 .445.36.8.801.8h14.685v.004zM20.407 31.186c0-.694.565-1.256 1.26-1.256h5.107v3.657h-3.148a.723.723 0 00-.722.722v24.315h-2.497V31.186zm-4.404 29.63v-.751H37.09c.363 1.498 1.505 2.448 2.995 2.448h8.809c1.426 0 2.572-.968 2.966-2.448h21.117v.75c0 1.58-1.405 2.989-3.152 3.305H18.908c-1.654-.309-2.906-1.672-2.906-3.304zm62.905 4.105a.8.8 0 01-.8.8h-1.07a.8.8 0 110-1.6h1.07a.8.8 0 01.8.8zm-51.33-9.623a.8.8 0 01.8-.8h12.637c.185 0 .363.064.505.181 1.21.985 2.86 1.466 3.287 1.444.584-.02 1.452-.565 2.149-1 .31-.191.608-.376.878-.526a.799.799 0 01.385-.096h11.707a.8.8 0 110 1.601H48.428c-.196.114-.406.245-.623.38-.904.566-1.928 1.207-2.942 1.242h-.075c-.957 0-2.728-.63-4.055-1.625H28.37a.8.8 0 01-.8-.8h.006zm4.01-23.386h8.808a.672.672 0 00.672-.673v-2.675a.672.672 0 00-.672-.672h-8.808a.672.672 0 00-.673.672v2.675c0 .374.303.673.673.673zm.672-2.675h7.46v1.326h-7.46v-1.326zm8.136 14.425h-8.808a.672.672 0 00-.673.672v3.476c0 .373.303.672.673.672h8.808a.672.672 0 00.672-.672v-3.476a.672.672 0 00-.672-.672zm-.673 3.475h-7.46V45.01h7.46v2.127zm8.709-5.069h8.737a.672.672 0 00.672-.672v-7.161a.672.672 0 00-.672-.673h-8.737a.672.672 0 00-.672.673v7.16c0 .374.302.673.672.673zm.672-7.161h7.39v5.813h-7.39v-5.813zm-17.705 2.906c0-.398.324-.722.722-.722h8.154a.723.723 0 010 1.445H32.12a.723.723 0 01-.722-.723zm15.962-6.577a.8.8 0 01.8-.8h9.09a.8.8 0 110 1.6h-9.09a.8.8 0 01-.8-.8zm0-2.675a.8.8 0 01.8-.8h9.09a.8.8 0 110 1.6h-9.09a.8.8 0 01-.8-.8zM58.054 47.81a.8.8 0 01-.8.8h-8.556a.8.8 0 110-1.6h8.555a.8.8 0 01.8.8zm0-2.675a.8.8 0 01-.8.8h-8.556a.8.8 0 110-1.6h8.555a.8.8 0 01.8.8zm-16.976-4.383a.8.8 0 01-.8.8h-8.154a.8.8 0 110-1.6h8.154a.8.8 0 01.8.8zm0-5.88a.8.8 0 01-.8.8h-8.154a.8.8 0 110-1.601h8.154a.8.8 0 01.8.8z" fill="#024"/></svg>