<svg width="36" height="35" fill="none" xmlns="http://www.w3.org/2000/svg"><g clip-path="url(#clip0_19_1264)"><path d="M17.52 34.186c9.677 0 17.52-7.653 17.52-17.093C35.04 7.653 27.198 0 17.52 0 7.844 0 0 7.653 0 17.093c0 9.44 7.844 17.093 17.52 17.093z" fill="#F1522F"/><path d="M12.765 9.795c.704 0 1.337.058 1.916.182.576.12 1.07.317 1.484.59.41.274.73.636.958 1.094.223.451.335 1.016.335 1.682 0 .721-.169 1.324-.503 1.805-.338.481-.836.876-1.5 1.183.903.253 1.572.699 2.016 1.334.446.639.665 1.403.665 2.3 0 .726-.143 1.352-.429 1.879-.288.531-.68.964-1.163 1.296a5.13 5.13 0 01-1.671.742 7.67 7.67 0 01-1.921.24h-7.12V9.793h6.925l.008.003zm-.418 5.789c.574 0 1.049-.132 1.423-.403.37-.266.553-.701.553-1.304 0-.334-.06-.608-.18-.823a1.313 1.313 0 00-.498-.499 2.065 2.065 0 00-.711-.25 4.459 4.459 0 00-.83-.071H9.076v3.347h3.273l-.003.003zm.18 6.1c.319 0 .622-.028.905-.091.288-.06.545-.16.763-.304.216-.14.395-.33.525-.572.13-.24.192-.552.192-.93 0-.739-.213-1.263-.636-1.582-.423-.314-.99-.471-1.687-.471H9.072v3.945h3.452l.002.005zm10.223-.048c.437.418 1.07.625 1.89.625.59 0 1.098-.144 1.526-.435.424-.289.68-.598.782-.92h2.572c-.413 1.25-1.04 2.14-1.898 2.677-.846.54-1.876.808-3.078.808-.838 0-1.591-.132-2.268-.392a4.85 4.85 0 01-1.719-1.115 5.06 5.06 0 01-1.08-1.73 6.19 6.19 0 01-.381-2.21c0-.8.132-1.502.392-2.17a5.1 5.1 0 011.113-1.74 5.31 5.31 0 011.724-1.157c.667-.281 1.404-.423 2.22-.423.9 0 1.686.17 2.364.514a4.7 4.7 0 011.658 1.375 5.53 5.53 0 01.935 1.97 7.16 7.16 0 01.202 2.31H22.03c0 .82.285 1.598.724 2.013h-.002zm3.357-5.452c-.348-.375-.935-.577-1.654-.577-.467 0-.854.075-1.163.232-.3.155-.55.347-.74.573-.189.23-.316.47-.391.732-.075.25-.12.48-.133.683h4.753c-.07-.726-.325-1.263-.672-1.64v-.003zm1.277-5.429h-5.955v1.415h5.955v-1.415z" fill="#fff"/></g><defs><clipPath id="clip0_19_1264"><path fill="#fff" d="M0 0h35.041v34.186H0z"/></clipPath></defs></svg>