<svg width="35" height="35" fill="none" xmlns="http://www.w3.org/2000/svg"><g clip-path="url(#clip0_19_1255)"><path d="M34.186 17.093C34.186 7.653 26.533 0 17.093 0 7.653 0 0 7.653 0 17.093c0 8.531 6.25 15.604 14.421 16.885V22.033h-4.34v-4.94h4.34v-3.765c0-4.285 2.553-6.65 6.458-6.65 1.871 0 3.826.334 3.826.334v4.206H22.55c-2.122 0-2.785 1.317-2.785 2.67v3.205h4.74l-.757 4.94h-3.983v11.945c8.171-1.28 14.421-8.354 14.421-16.885z" fill="#F1522F"/><path d="M23.745 22.034l.758-4.941h-4.74v-3.206c0-1.352.66-2.669 2.785-2.669h2.155V7.012s-1.955-.334-3.827-.334c-3.905 0-6.457 2.365-6.457 6.65v3.765h-4.34v4.94h4.34v11.945a17.216 17.216 0 005.343 0V22.033h3.983z" fill="#fff"/></g><defs><clipPath id="clip0_19_1255"><path fill="#fff" d="M0 0h34.186v34.186H0z"/></clipPath></defs></svg>