<svg width="36" height="35" fill="none" xmlns="http://www.w3.org/2000/svg"><g clip-path="url(#clip0_19_1258)"><path d="M17.52 34.186c9.677 0 17.52-7.653 17.52-17.093C35.04 7.653 27.198 0 17.52 0 7.844 0 0 7.653 0 17.093c0 9.44 7.844 17.093 17.52 17.093z" fill="#F1522F"/><path d="M17.52 8.27c2.946 0 3.294.01 4.457.064 1.075.048 1.659.223 2.048.37.514.194.882.427 1.27.805.386.377.625.734.824 1.238.151.38.33.95.38 1.998.051 1.135.064 1.476.064 4.348s-.01 3.213-.064 4.348c-.05 1.048-.229 1.618-.38 1.998-.2.501-.438.86-.825 1.238-.387.378-.753.61-1.27.806-.389.146-.973.321-2.047.37-1.163.05-1.51.063-4.457.063-2.946 0-3.294-.01-4.456-.064-1.075-.048-1.659-.223-2.048-.37a3.433 3.433 0 01-1.27-.805 3.314 3.314 0 01-.825-1.238c-.15-.38-.33-.95-.379-1.998-.052-1.134-.065-1.476-.065-4.348s.01-3.213.065-4.348c.05-1.048.228-1.618.379-1.998.2-.501.439-.86.825-1.238.387-.378.753-.61 1.27-.805.389-.147.973-.322 2.048-.37 1.162-.05 1.513-.064 4.456-.064zm0-1.94c-2.995 0-3.371.013-4.547.067-1.174.053-1.976.233-2.679.501a5.473 5.473 0 00-1.954 1.24 5.237 5.237 0 00-1.272 1.908c-.273.683-.46 1.466-.514 2.613-.055 1.147-.068 1.514-.068 4.437 0 2.922.013 3.289.068 4.436.054 1.145.239 1.927.514 2.613a5.303 5.303 0 001.272 1.907 5.395 5.395 0 001.954 1.241c.7.266 1.503.448 2.679.502 1.176.053 1.552.065 4.547.065 2.996 0 3.372-.012 4.548-.066 1.173-.053 1.975-.232 2.678-.5a5.472 5.472 0 001.955-1.242 5.237 5.237 0 001.272-1.907c.272-.683.46-1.466.514-2.613.054-1.147.067-1.514.067-4.436 0-2.923-.013-3.29-.067-4.437-.055-1.145-.24-1.927-.514-2.613A5.313 5.313 0 0026.7 8.139a5.394 5.394 0 00-1.955-1.241c-.7-.266-1.502-.448-2.678-.501-1.176-.054-1.552-.066-4.548-.066z" fill="#fff"/><path d="M17.52 11.568c-3.127 0-5.663 2.474-5.663 5.525 0 3.052 2.536 5.526 5.663 5.526 3.128 0 5.664-2.474 5.664-5.526 0-3.051-2.536-5.525-5.664-5.525zm0 9.113c-2.03 0-3.678-1.605-3.678-3.588s1.646-3.588 3.678-3.588c2.033 0 3.678 1.605 3.678 3.588s-1.645 3.588-3.678 3.588zm5.89-8.042c.73 0 1.323-.579 1.323-1.292 0-.713-.592-1.291-1.323-1.291s-1.324.578-1.324 1.291.593 1.292 1.324 1.292z" fill="#fff"/></g><defs><clipPath id="clip0_19_1258"><path fill="#fff" d="M0 0h35.041v34.186H0z"/></clipPath></defs></svg>