<svg width="36" height="35" fill="none" xmlns="http://www.w3.org/2000/svg"><g clip-path="url(#clip0_19_1246)"><path d="M17.52 34.186c9.677 0 17.52-7.653 17.52-17.093C35.04 7.653 27.198 0 17.52 0 7.844 0 0 7.653 0 17.093c0 9.44 7.844 17.093 17.52 17.093z" fill="#F1522F"/><path d="M18.875 14.76c.289-.316.525-.635.82-.906.91-.835 1.984-1.256 3.24-1.246.69.005 1.37.053 2.035.24 1.521.429 2.404 1.452 2.827 2.9.316 1.087.373 2.204.376 3.323.005 2.36-.008 4.723 0 7.083 0 .22-.062.278-.286.278a233.13 233.13 0 00-3.74 0c-.22 0-.267-.063-.267-.266.008-2.246.008-4.492 0-6.74 0-.563-.04-1.128-.2-1.675-.299-1.007-1.038-1.521-2.12-1.466-1.48.076-2.248.79-2.435 2.256-.044.35-.068.702-.065 1.054 0 2.185 0 4.37.005 6.556 0 .218-.055.281-.283.281a236.76 236.76 0 00-3.769 0c-.202 0-.26-.05-.26-.25.006-4.326.006-8.653 0-12.979 0-.215.073-.263.281-.263 1.191.008 2.385.01 3.577 0 .22 0 .275.068.272.271-.013.517-.005 1.033-.005 1.552l-.003-.002zm-6.831 4.944c0 2.14-.003 4.28.005 6.42 0 .237-.06.308-.312.306-1.245-.013-2.491-.01-3.74 0-.2 0-.26-.049-.26-.249.006-4.332.006-8.665 0-13 0-.18.045-.243.24-.243a281.8 281.8 0 003.791 0c.244 0 .276.088.276.293-.005 2.158-.003 4.315-.003 6.473h.003zm.345-11.059c0 1.345-1.116 2.439-2.492 2.439-1.357 0-2.484-1.094-2.489-2.418-.005-1.338 1.121-2.44 2.494-2.44 1.363 0 2.484 1.092 2.487 2.417v.002z" fill="#FEFEFE"/></g><defs><clipPath id="clip0_19_1246"><path fill="#fff" d="M0 0h35.041v34.186H0z"/></clipPath></defs></svg>