<svg width="58" height="36" fill="none" xmlns="http://www.w3.org/2000/svg"><path d="M44.81 35.66c-1.855 0-3.548-.276-5.078-.83-1.53-.586-2.832-1.383-3.906-2.392-1.074-1.042-1.92-2.295-2.539-3.76-.586-1.465-.879-3.093-.879-4.883 0-1.856.326-3.792.977-5.81.683-2.019 1.66-4.053 2.93-6.104 1.269-2.05 2.799-4.07 4.59-6.055 1.822-2.018 3.89-3.955 6.2-5.81l5.616 4.394a80.399 80.399 0 00-2.93 3.174 47.474 47.474 0 00-2.344 3.027 39.135 39.135 0 00-2.002 3.125 33.118 33.118 0 00-1.611 3.418l13.281 6.64c0 1.759-.342 3.37-1.025 4.835-.651 1.465-1.53 2.718-2.637 3.76-1.107 1.041-2.409 1.855-3.906 2.441-1.497.553-3.076.83-4.736.83zm-31.884 0c-1.856 0-3.548-.276-5.078-.83-1.53-.586-2.832-1.383-3.907-2.392-1.074-1.042-1.92-2.295-2.539-3.76-.586-1.465-.879-3.093-.879-4.883 0-1.856.326-3.792.977-5.81.684-2.019 1.66-4.053 2.93-6.104 1.27-2.05 2.8-4.07 4.59-6.055 1.822-2.018 3.89-3.955 6.2-5.81l5.616 4.394a80.475 80.475 0 00-2.93 3.174 47.474 47.474 0 00-2.343 3.027 39.163 39.163 0 00-2.003 3.125 33.118 33.118 0 00-1.61 3.418l13.28 6.64c0 1.759-.341 3.37-1.025 4.835-.651 1.465-1.53 2.718-2.637 3.76-1.106 1.041-2.409 1.855-3.906 2.441-1.497.553-3.076.83-4.736.83z" fill="#F1522F"/></svg>