<svg width="220" height="48" fill="none" xmlns="http://www.w3.org/2000/svg"><path d="M45.774 22.886c0 12.639-10.247 22.886-22.886 22.886S0 35.527 0 22.886 10.247 0 22.886 0s22.886 10.247 22.886 22.886" fill="#F1522F"/><path d="M8.849 28.505c-.307 0-.461.109-.461.323 0 .1.034.169.106.21.071.042.23.083.482.127.251.044.429.106.533.184.104.079.157.227.157.446s-.07.376-.21.477c-.141.102-.344.152-.612.152-.175 0-.38-.02-.618-.06l-.127-.02.016-.275c.321.049.566.072.73.072.163 0 .288-.026.373-.079.085-.053.13-.14.13-.263 0-.122-.038-.205-.111-.249-.074-.044-.236-.085-.483-.124-.249-.04-.424-.097-.528-.173-.104-.076-.157-.217-.157-.425 0-.207.072-.357.22-.457a.945.945 0 01.544-.147c.173 0 .387.02.648.06l.118.02-.01.27a5.342 5.342 0 00-.74-.067m2.097-.286c.092 0 .251.017.475.051l.101.014-.011.258a4.876 4.876 0 00-.5-.037c-.24 0-.404.058-.49.171-.085.116-.129.325-.129.635 0 .309.042.523.12.646.08.122.247.182.503.182l.5-.037.014.263c-.263.039-.459.06-.588.06-.33 0-.558-.086-.683-.254-.124-.168-.189-.454-.189-.858 0-.404.067-.685.203-.847.136-.161.362-.244.678-.244m1.368 2.156H12v-3.04h.318v1.043a1.51 1.51 0 01.653-.162c.282 0 .473.077.57.229.097.152.145.424.145.812v1.119h-.318v-1.11c0-.293-.028-.494-.088-.602-.057-.108-.18-.164-.366-.164-.187 0-.351.033-.517.097l-.081.03v1.749h.002zm1.862-1.063c0-.387.07-.666.207-.837.139-.173.372-.259.702-.259.33 0 .56.086.699.259.136.173.205.452.205.837 0 .385-.065.67-.194.842-.129.175-.367.263-.71.263-.344 0-.582-.088-.71-.263-.13-.175-.197-.457-.197-.842m.325-.007c0 .31.037.526.114.65.073.125.23.188.47.188.24 0 .395-.063.468-.185.074-.122.111-.339.111-.65 0-.312-.041-.524-.122-.642-.08-.117-.233-.175-.455-.175-.221 0-.373.06-.456.175-.083.118-.125.33-.125.64m1.903.006c0-.387.07-.666.208-.837.138-.173.371-.259.7-.259.33 0 .561.086.7.259.136.173.205.452.205.837 0 .385-.064.67-.194.842-.129.175-.366.263-.71.263s-.581-.088-.71-.263c-.13-.175-.197-.457-.197-.842m.326-.007c0 .31.037.526.113.65.073.125.23.188.47.188.24 0 .395-.063.468-.185.074-.122.111-.339.111-.65 0-.312-.041-.524-.122-.642-.08-.117-.233-.175-.455-.175-.22 0-.373.06-.456.175-.083.118-.125.33-.125.64m2.342-1.971h-.319v3.04h.319v-3.04z" fill="#13110C"/><path d="M8.055 15.695h3.264c1.304 0 2.626.508 2.626 2.462 0 1.668-.944 1.848-.944 1.848s1.158.097 1.158 1.859c0 1.624-.913 2.436-2.738 2.436H8.055v-8.605zm3.24 1.271H9.448v2.402h1.845c.821 0 1.232-.397 1.232-1.213 0-.817-.376-1.189-1.232-1.189zm.024 3.67H9.45v2.457h1.87c.734 0 1.408-.207 1.408-1.243 0-1.107-.595-1.213-1.408-1.213z" fill="#15130F"/><path d="M38.305 36.847L25.76 24.3l-1.64-.766v21.153l1.64-.87 2.787-2.786.69-.708.706.708 1.395 2.791 1.391 2.785 1.396.807 1.39-.777.757-1.488-.756-1.329-1.391-2.791-.955-1.98h6.06l-.925-2.202z" fill="#fff"/><path d="M32.729 43.818h-1.393v2.786h1.393v-2.786zM27.153 24.3H25.76v1.393h1.393V24.3zm-2.789 0h1.394v-1.393h-2.79v22.309h2.79v-1.398h-1.396m4.185-18.123h-1.393v1.394h1.393v-1.393zm1.393 1.394h-1.393v1.393h1.393V27.09zm1.396 1.393h-1.394v1.393h1.394v-1.393zm1.393 1.396h-1.393v1.393h1.393v-1.393zm1.393 1.393H32.73v1.393h1.393v-1.393zm1.393 1.393h-1.393v1.394h1.393v-1.394zm1.396 1.396h-1.393v1.393h1.393V34.06zm1.394 1.393H36.91v1.394h1.394v-1.394z" fill="#15130F"/><path d="M38.305 36.847v1.393h-5.576v2.791h1.396v-1.395H39.7v-2.79h-1.395zm-8.363 2.789H28.55v1.393h1.393v-1.394z" fill="#15130F"/><path d="M35.518 41.029h-1.394v2.789h1.394v-2.79zm-4.182.002h-1.394v2.79h1.394v-2.79zm4.182 5.576h-2.789V48h2.789v-1.393zm1.393-2.789h-1.393v2.789h1.393v-2.79zm-8.364-2.787h-1.393v1.394h1.393V41.03zm-1.394 1.393H25.76v1.394h1.393v-1.394zM25.76 21.271V24.3h-1.393v-8.605h3.264c1.942 0 2.913.916 2.913 2.741 0 1.223-.468 2.05-1.407 2.487l1.419 3.377h-1.532l-1.243-3.029H25.76zm3.354-2.823c0-1.03-.494-1.482-1.483-1.482H25.76v3.036l1.848.005c1 0 1.504-.51 1.504-1.56m2.35-1.481v-1.27h6.28v1.27h-2.425V24.3H33.91v-7.334h-2.448zM15.396 24.3l2.184-8.605h2.655l2.196 8.605h-1.407l-.466-1.848h-3.303L16.79 24.3h-1.395zm3.264-7.437l-1.085 4.36h2.665l-1.073-4.36h-.507z" fill="#15130F"/><path d="M17.485 23.951H14.86v.349h2.625v-.349zm5.482 0h-2.625v.349h2.625v-.349zm-3.88-9.485h-.349v9.218h.349v-9.218z" fill="#15130F"/><path d="M211.507 30.536V9.8h4.14v19.044c0 1.752.468 2.628 1.404 2.628.528 0 1.092-.216 1.692-.648l.864 3.168c-1.128.912-2.556 1.368-4.284 1.368-2.544 0-3.816-1.608-3.816-4.824zm-18.811 2.484c-1.608-1.608-2.412-3.648-2.412-6.12s.804-4.5 2.412-6.084c1.608-1.608 3.744-2.412 6.408-2.412 2.64 0 4.764.804 6.372 2.412 1.632 1.584 2.448 3.612 2.448 6.084 0 2.448-.816 4.488-2.448 6.12-1.632 1.584-3.756 2.376-6.372 2.376-2.664 0-4.8-.792-6.408-2.376zm3.276-9.432c-.84.864-1.26 1.968-1.26 3.312 0 1.344.408 2.46 1.224 3.348.84.864 1.896 1.296 3.168 1.296 1.296 0 2.352-.432 3.168-1.296.84-.864 1.26-1.98 1.26-3.348 0-1.344-.42-2.448-1.26-3.312-.84-.864-1.896-1.296-3.168-1.296-1.248 0-2.292.432-3.132 1.296zm-23.491 9.432c-1.608-1.608-2.412-3.648-2.412-6.12s.804-4.5 2.412-6.084c1.608-1.608 3.744-2.412 6.408-2.412 2.64 0 4.764.804 6.372 2.412 1.632 1.584 2.448 3.612 2.448 6.084 0 2.448-.816 4.488-2.448 6.12-1.632 1.584-3.756 2.376-6.372 2.376-2.664 0-4.8-.792-6.408-2.376zm3.276-9.432c-.84.864-1.26 1.968-1.26 3.312 0 1.344.408 2.46 1.224 3.348.84.864 1.896 1.296 3.168 1.296 1.296 0 2.352-.432 3.168-1.296.84-.864 1.26-1.98 1.26-3.348 0-1.344-.42-2.448-1.26-3.312-.84-.864-1.896-1.296-3.168-1.296-1.248 0-2.292.432-3.132 1.296zM155.565 35h-4.14V9.8h4.14v10.476c1.2-1.176 2.748-1.764 4.644-1.764 4.44 0 6.66 2.364 6.66 7.092V35h-4.14v-8.856c0-1.2-.312-2.124-.936-2.772-.624-.648-1.512-.972-2.664-.972-1.392 0-2.58.492-3.564 1.476V35zm-9.407-5.436l1.944 3.024c-1.368 1.872-3.516 2.808-6.444 2.808-2.616 0-4.74-.78-6.372-2.34-1.608-1.536-2.412-3.588-2.412-6.156 0-2.424.792-4.44 2.376-6.048 1.584-1.632 3.588-2.448 6.012-2.448 2.88 0 5.052.732 6.516 2.196l-1.944 3.276c-1.104-1.056-2.448-1.584-4.032-1.584-1.2 0-2.256.432-3.168 1.296-.888.816-1.332 1.92-1.332 3.312s.456 2.52 1.368 3.384c.96.84 2.064 1.26 3.312 1.26 1.608 0 3-.66 4.176-1.98zm-28.812-6.228c0-1.512.552-2.712 1.656-3.6 1.104-.888 2.532-1.332 4.284-1.332 2.64 0 4.692.684 6.156 2.052l-1.548 2.952c-1.32-1.032-2.784-1.548-4.392-1.548-.576 0-1.056.144-1.44.432-.384.264-.576.588-.576.972 0 .792 1.02 1.452 3.06 1.98.744.168 1.404.36 1.98.576.576.192 1.164.48 1.764.864.624.36 1.104.84 1.44 1.44.336.6.504 1.296.504 2.088 0 1.584-.6 2.844-1.8 3.78-1.176.936-2.76 1.404-4.752 1.404-1.416 0-2.796-.3-4.14-.9-1.368-.624-2.244-1.248-2.628-1.872l2.016-2.7c.456.552 1.212 1.02 2.268 1.404 1.08.408 2.004.612 2.772.612.936.096 1.596-.204 1.98-.9.384-.72.132-1.308-.756-1.764-.36-.192-.924-.396-1.692-.612a55.942 55.942 0 01-2.088-.648c-.624-.24-1.272-.54-1.944-.9a4.156 4.156 0 01-1.548-1.476c-.384-.648-.576-1.416-.576-2.304zm-12.793 5.508V14.3h4.14v4.5h5.22v3.888h-5.22v5.904c0 1.944.648 2.916 1.944 2.916.816 0 1.644-.312 2.484-.936l1.26 3.204c-1.32 1.056-2.916 1.584-4.788 1.584-1.752 0-3.036-.528-3.852-1.584-.792-1.08-1.188-2.724-1.188-4.932zM96.327 35h-4.14V18.8h4.14v1.584c.888-1.248 2.124-1.872 3.708-1.872 1.128 0 1.968.204 2.52.612l-1.476 3.888c-.696-.408-1.392-.612-2.088-.612-1.2 0-2.088.576-2.664 1.728V35zM76.783 22.976l-1.044-3.024c1.752-1.032 3.66-1.548 5.724-1.548 2.256 0 3.9.552 4.932 1.656 1.032 1.104 1.548 2.796 1.548 5.076V35h-3.6v-1.872c-.96 1.392-2.556 2.088-4.788 2.088-1.536 0-2.772-.444-3.708-1.332-.912-.912-1.368-2.124-1.368-3.636 0-1.68.54-2.976 1.62-3.888 1.08-.912 2.508-1.368 4.284-1.368 1.464 0 2.688.348 3.672 1.044.048-1.44-.168-2.496-.648-3.168-.456-.672-1.248-1.008-2.376-1.008-1.248 0-2.664.372-4.248 1.116zm4.14 8.748c1.392 0 2.436-.492 3.132-1.476v-1.656c-.672-.528-1.62-.792-2.844-.792-.768 0-1.392.18-1.872.54-.48.36-.72.852-.72 1.476 0 .576.216 1.044.648 1.404.432.336.984.504 1.656.504zm-26.431 3.24V9.872c2.592-.12 5.016-.18 7.272-.18 2.784 0 4.86.552 6.228 1.656 1.368 1.104 2.052 2.628 2.052 4.572 0 2.712-1.2 4.62-3.6 5.724v.072c1.368.36 2.448 1.044 3.24 2.052.792.984 1.188 2.256 1.188 3.816 0 2.448-.84 4.32-2.52 5.616-1.68 1.296-3.96 1.944-6.84 1.944s-5.22-.06-7.02-.18zm7.56-10.8H58.92v6.66c1.128.12 2.1.18 2.916.18 3.072 0 4.608-1.212 4.608-3.636 0-1.056-.384-1.848-1.152-2.376-.768-.552-1.848-.828-3.24-.828zm-.36-10.332c-1.056 0-1.98.036-2.772.108v6.372h2.988c1.128 0 2.028-.288 2.7-.864.696-.576 1.044-1.404 1.044-2.484 0-1.008-.348-1.776-1.044-2.304-.696-.552-1.668-.828-2.916-.828z" fill="#fff"/></svg>